<?xml version="1.0" encoding="utf-8"?>
<!-- Generator: Adobe Illustrator 19.1.0, SVG Export Plug-In . SVG Version: 6.00 Build 0)  -->
<svg version="1.1" id="Layer_1" xmlns="http://www.w3.org/2000/svg" xmlns:xlink="http://www.w3.org/1999/xlink" x="0px" y="0px"
	 viewBox="-362 274.5 65.5 65.5" style="enable-background:new -362 274.5 65.5 65.5;" xml:space="preserve">
<style type="text/css">
	.st0{fill:#231F20;}
	.st1{fill:#FFFFFF;}
	.st2{fill:none;stroke:#231F20;stroke-linecap:round;stroke-miterlimit:10;}
	.st3{fill:none;}
	.st4{font-family:'STKaiTi-TC-Regular';}
	.st5{font-size:3.6127px;}
</style>
<g>
	<circle class="st0" cx="-329.3" cy="307.2" r="32.7"/>
</g>
<path class="st1" d="M-312.9,317.8H-345c-0.1,0-0.2-0.1-0.2-0.2V299c0-0.3,0.2-0.5,0.5-0.5h31.3c0.3,0,0.6,0.3,0.6,0.6v18.5
	C-312.8,317.7-312.8,317.8-312.9,317.8z"/>
<polyline class="st2" points="-344.7,299 -329,306.5 -313.3,299 "/>
<path class="st0" d="M-329,304.7c0,0-0.7-2.6-3.2-1.7c0,0-1.7,0.6-1.4,2.7c0.1,0.5,0.3,1,0.6,1.4s0.9,1,1.7,1.8c0,0,1.8,1.6,2.2,2.3
	c0,0,0.7-1.1,2-2.2c0,0,2.3-1.9,2.5-3c0,0,0.7-2.4-1.6-3.1C-326.2,302.9-328,302.2-329,304.7z"/>
<rect x="-330.8" y="304.8" class="st3" width="3.6" height="3.4"/>
<text transform="matrix(1 0 0 1 -330.7823 307.3832)" class="st1 st4 st5">@</text>
</svg>
