<?xml version="1.0" encoding="utf-8"?>
<!-- Generator: Adobe Illustrator 19.1.0, SVG Export Plug-In . SVG Version: 6.00 Build 0)  -->
<svg version="1.1" id="Layer_1" xmlns="http://www.w3.org/2000/svg" xmlns:xlink="http://www.w3.org/1999/xlink" x="0px" y="0px"
	 viewBox="0 0 65.5 65.5" style="enable-background:new 0 0 65.5 65.5;" xml:space="preserve">
<style type="text/css">
	.st0{fill:#BCBEC0;}
	.st1{fill:#FFFFFF;}
	.st2{fill:none;stroke:#BCBEC0;stroke-linecap:round;stroke-miterlimit:10;}
	.st3{fill:none;}
	.st4{font-family:'STKaiTi-TC-Regular';}
	.st5{font-size:3.6127px;}
</style>
<g>
	<circle class="st0" cx="32.7" cy="32.7" r="32.7"/>
</g>
<g>
	<path class="st1" d="M49.1,43.3H17c-0.1,0-0.2-0.1-0.2-0.2V24.5c0-0.3,0.2-0.5,0.5-0.5h31.3c0.3,0,0.6,0.3,0.6,0.6v18.5
		C49.2,43.2,49.2,43.3,49.1,43.3z"/>
	<polyline class="st2" points="17.3,24.5 33,32 48.7,24.5 	"/>
	<path class="st0" d="M33,30.2c0,0-0.7-2.6-3.2-1.7c0,0-1.7,0.6-1.4,2.7c0.1,0.5,0.3,1,0.6,1.4c0.3,0.4,0.9,1,1.7,1.8
		c0,0,1.8,1.6,2.2,2.3c0,0,0.7-1.1,2-2.2c0,0,2.3-1.9,2.5-3c0,0,0.7-2.4-1.6-3.1C35.8,28.4,34,27.7,33,30.2z"/>
	<rect x="31.2" y="30.3" class="st3" width="3.6" height="3.4"/>
	<text transform="matrix(1 0 0 1 31.2177 32.8832)" class="st1 st4 st5">@</text>
</g>
</svg>
