<?xml version="1.0" encoding="utf-8"?>
<!-- Generator: Adobe Illustrator 19.1.0, SVG Export Plug-In . SVG Version: 6.00 Build 0)  -->
<svg version="1.1" id="Layer_1" xmlns="http://www.w3.org/2000/svg" xmlns:xlink="http://www.w3.org/1999/xlink" x="0px" y="0px"
	 viewBox="0 0 241.3 216" style="enable-background:new 0 0 241.3 216;" xml:space="preserve">
<style type="text/css">
	.st0{fill:#A09F9F;stroke:url(#SVGID_1_);stroke-width:10;stroke-miterlimit:10;}
	.st1{fill:#FFFFFF;}
	.st2{fill:none;stroke:#F16485;stroke-linecap:round;stroke-miterlimit:10;}
	.st3{fill:#F16485;}
	.st4{fill:none;}
	.st5{font-family:'STKaiTi-TC-Regular';}
	.st6{font-size:10.8022px;}
</style>
<g>
	
		<linearGradient id="SVGID_1_" gradientUnits="userSpaceOnUse" x1="-200.5869" y1="-106" x2="12.5999" y2="-106" gradientTransform="matrix(-1 0 0 -1 26.8408 2)">
		<stop  offset="0" style="stop-color:#FFFFFF"/>
		<stop  offset="0.9951" style="stop-color:#F16485"/>
	</linearGradient>
	<circle class="st0" cx="120.7" cy="108" r="101.4"/>
</g>
<path class="st1" d="M165.2,139.1h-96c-0.3,0-0.6-0.3-0.6-0.6V82.8c0-0.9,0.6-1.5,1.5-1.5h93.6c0.9,0,1.8,0.9,1.8,1.8v55.3
	C165.5,139.1,165.5,139.1,165.2,139.1z"/>
<polyline class="st2" points="70.1,82.8 117.1,105.3 164.3,82.8 "/>
<path class="st3" d="M117.1,100.2c0,0-2.1-7.8-9.6-5.1c0,0-5.1,1.8-4.2,8.1c0.3,1.5,0.9,3,1.8,4.2s2.7,3,5.1,5.4
	c0,0,5.4,4.8,6.6,6.9c0,0,2.1-3.3,6-6.6c0,0,6.9-5.7,7.5-9c0,0,2.1-7.2-4.8-9.3C125.5,94.5,120.1,92.4,117.1,100.2z"/>
<rect x="111.7" y="100.2" class="st4" width="10.8" height="10.2"/>
<text transform="matrix(1 0 0 1 111.8982 108.0651)" class="st1 st5 st6">@</text>
</svg>
