<?xml version="1.0" encoding="utf-8"?>
<!-- Generator: Adobe Illustrator 19.1.0, SVG Export Plug-In . SVG Version: 6.00 Build 0)  -->
<svg version="1.1" id="Layer_1" xmlns="http://www.w3.org/2000/svg" xmlns:xlink="http://www.w3.org/1999/xlink" x="0px" y="0px"
	 viewBox="0 0 65.5 65.5" style="enable-background:new 0 0 65.5 65.5;" xml:space="preserve">
<style type="text/css">
	.st0{fill:#F7D4DC;}
	.st1{fill:#926AAE;}
	.st2{fill:none;stroke:#FFFFFF;stroke-width:0.1689;stroke-miterlimit:10;}
	.st3{fill:#BCBEC0;}
	.st4{fill:#FFFFFF;}
	.st5{fill:none;stroke:#BCBEC0;stroke-width:0.9084;stroke-miterlimit:10;}
	.st6{fill:#BCBEC0;stroke:#BCBEC0;stroke-width:1.5509;stroke-miterlimit:10;}
	.st7{fill:#BCBEC0;stroke:#FFFFFF;stroke-width:1.0901;stroke-miterlimit:10;}
</style>
<path class="st0" d="M-61-17.7c0,0-2.1-7.2-8.9-4.9c0,0-4.9,1.7-3.9,7.5c0.2,1.4,0.8,2.7,1.6,3.9c0.9,1.2,2.4,3,4.9,5
	c0,0,5.1,4.4,6.3,6.5c0,0,2.1-3.1,5.7-6.1c0,0,6.4-5.3,6.9-8.3c0,0,2.1-6.8-4.6-8.8C-53-23-58.2-24.8-61-17.7z"/>
<path class="st0" d="M-39.6,29.9c0,0-2.1-7.2-8.9-4.9c0,0-4.9,1.7-3.9,7.5c0.2,1.4,0.8,2.7,1.6,3.9c0.9,1.2,2.4,3,4.9,5
	c0,0,5.1,4.4,6.3,6.5c0,0,2.1-3.1,5.7-6.1c0,0,6.4-5.3,6.9-8.3c0,0,2.1-6.8-4.6-8.8C-31.5,24.7-36.8,22.9-39.6,29.9z"/>
<path class="st1" d="M-55.8-16.7c0,0-1.8-1.8-3.8-0.1c0,0-1.1,0.9-0.8,2.7c0,0-3.5-0.1-5.6-2.9c0,0-1.3,1.8,0.7,3.6
	c0,0-0.8,0-1.2-0.3c0,0-0.1,2,2.1,2.7c0,0-0.6,0.2-1.1,0.1c0,0,0.3,1.7,2.5,1.8c0,0-1.8,1.5-4,1.1c0,0,4.3,3,9-0.4
	c0.7-0.5,1.3-1.2,1.8-2c0.6-1,1.2-2.5,1.1-4.4c0,0,1.1-1.2,1.3-1.5c0,0-1.4,0.5-1.5,0.4c0,0,0.9-0.6,1.2-1.5
	C-54.1-17.4-55.3-16.7-55.8-16.7z"/>
<path class="st1" d="M-25.9-8.1h-13.6V-16c0-0.1,0.1-0.2,0.2-0.2h13.2c0.1,0,0.2,0.1,0.2,0.2V-8.1z"/>
<polyline class="st2" points="-39.5,-16.1 -32.8,-12.8 -26,-16.1 "/>
<path class="st0" d="M-32.8-13.6c0,0-0.3-1.1-1.3-0.7c0,0-0.7,0.3-0.6,1.1c0,0.2,0.1,0.4,0.2,0.6c0.1,0.2,0.4,0.4,0.7,0.7
	c0,0,0.8,0.7,0.9,1c0,0,0.3-0.5,0.9-0.9c0,0,1-0.8,1-1.2c0,0,0.3-1-0.7-1.3C-31.6-14.4-32.4-14.6-32.8-13.6z"/>
<rect x="-33.5" y="-13.6" style="fill:none;" width="1.5" height="1.4"/>
<text transform="matrix(1 0 0 1 -33.526 -12.4624)" style="font-family:'STKaiTi-TC-Regular'; font-size:1.5197px;">@</text>
<circle class="st3" cx="32.9" cy="32.8" r="32.6"/>
<g>
	<path class="st4" d="M43.5,49.9H22c-2.9,0-5.3-2.4-5.3-5.3V24.4c0-2.9,2.4-5.3,5.3-5.3h21.4c2.9,0,5.3,2.4,5.3,5.3v20.2
		C48.7,47.5,46.4,49.9,43.5,49.9z"/>
	<line class="st5" x1="16.8" y1="27.8" x2="48.7" y2="27.8"/>
	<g>
		<circle class="st6" cx="32.7" cy="35" r="8.5"/>
		<circle class="st7" cx="32.7" cy="35" r="6"/>
	</g>
	<rect x="42.7" y="22" class="st3" width="3.9" height="3.9"/>
	<line class="st5" x1="20.3" y1="19.7" x2="20.3" y2="24.4"/>
	<line class="st5" x1="21.7" y1="19.2" x2="21.7" y2="24.4"/>
	<line class="st5" x1="23.2" y1="19.2" x2="23.2" y2="24.4"/>
</g>
</svg>
