<?xml version="1.0" encoding="utf-8"?>
<!-- Generator: Adobe Illustrator 19.1.0, SVG Export Plug-In . SVG Version: 6.00 Build 0)  -->
<svg version="1.1" id="Layer_1" xmlns="http://www.w3.org/2000/svg" xmlns:xlink="http://www.w3.org/1999/xlink" x="0px" y="0px"
	 viewBox="-362 274.5 65.5 65.5" style="enable-background:new -362 274.5 65.5 65.5;" xml:space="preserve">
<style type="text/css">
	.st0{fill:#F7D4DC;}
	.st1{fill:#926AAE;}
	.st2{fill:none;stroke:#FFFFFF;stroke-width:0.1689;stroke-miterlimit:10;}
	.st3{fill:none;}
	.st4{enable-background:new    ;}
	.st5{fill:#231F20;}
	.st6{fill:#FFFFFF;}
	.st7{fill:none;stroke:#FF6485;stroke-width:0.9084;stroke-miterlimit:10;}
	.st8{fill:#FF6485;stroke:#FF6485;stroke-width:1.5509;stroke-miterlimit:10;}
	.st9{fill:#FF6485;stroke:#FFFFFF;stroke-width:1.0901;stroke-miterlimit:10;}
	.st10{fill:#FF6485;}
	.st11{fill:none;stroke:url(#SVGID_1_);stroke-width:2.9295;stroke-miterlimit:10;}
</style>
<path class="st0" d="M-423,256.8c0,0-2.1-7.2-8.9-4.9c0,0-4.9,1.7-3.9,7.5c0.2,1.4,0.8,2.7,1.6,3.9c0.9,1.2,2.4,3,4.9,5
	c0,0,5.1,4.4,6.3,6.5c0,0,2.1-3.1,5.7-6.1c0,0,6.4-5.3,6.9-8.3c0,0,2.1-6.8-4.6-8.8C-415,251.5-420.2,249.7-423,256.8z"/>
<path class="st0" d="M-401.6,304.4c0,0-2.1-7.2-8.9-4.9c0,0-4.9,1.7-3.9,7.5c0.2,1.4,0.8,2.7,1.6,3.9c0.9,1.2,2.4,3,4.9,5
	c0,0,5.1,4.4,6.3,6.5c0,0,2.1-3.1,5.7-6.1c0,0,6.4-5.3,6.9-8.3c0,0,2.1-6.8-4.6-8.8C-393.5,299.2-398.8,297.4-401.6,304.4z"/>
<path class="st1" d="M-417.8,257.8c0,0-1.8-1.8-3.8-0.1c0,0-1.1,0.9-0.8,2.7c0,0-3.5-0.1-5.6-2.9c0,0-1.3,1.8,0.7,3.6
	c0,0-0.8,0-1.2-0.3c0,0-0.1,2,2.1,2.7c0,0-0.6,0.2-1.1,0.1c0,0,0.3,1.7,2.5,1.8c0,0-1.8,1.5-4,1.1c0,0,4.3,3,9-0.4
	c0.7-0.5,1.3-1.2,1.8-2c0.6-1,1.2-2.5,1.1-4.4c0,0,1.1-1.2,1.3-1.5c0,0-1.4,0.5-1.5,0.4c0,0,0.9-0.6,1.2-1.5
	C-416.1,257.1-417.3,257.8-417.8,257.8z"/>
<path class="st1" d="M-387.9,266.4h-13.6v-7.9c0-0.1,0.1-0.2,0.2-0.2h13.2c0.1,0,0.2,0.1,0.2,0.2
	C-387.9,258.5-387.9,266.4-387.9,266.4z"/>
<polyline class="st2" points="-401.5,258.4 -394.8,261.7 -388,258.4 "/>
<path class="st0" d="M-394.8,260.9c0,0-0.3-1.1-1.3-0.7c0,0-0.7,0.3-0.6,1.1c0,0.2,0.1,0.4,0.2,0.6c0.1,0.2,0.4,0.4,0.7,0.7
	c0,0,0.8,0.7,0.9,1c0,0,0.3-0.5,0.9-0.9c0,0,1-0.8,1-1.2c0,0,0.3-1-0.7-1.3C-393.6,260.1-394.4,259.9-394.8,260.9z"/>
<rect x="-395.5" y="260.9" class="st3" width="1.5" height="1.4"/>
<text transform="matrix(1 0 0 1 -395.526 262.0376)" style="font-family:'STKaiTi-TC-Regular'; font-size:1.5197px;">@</text>
<circle class="st5" cx="-236.9" cy="303.5" r="32.6"/>
<path class="st6" d="M-318.5,324.4H-340c-2.9,0-5.3-2.4-5.3-5.3v-20.2c0-2.9,2.4-5.3,5.3-5.3h21.4c2.9,0,5.3,2.4,5.3,5.3v20.2
	C-313.3,322-315.6,324.4-318.5,324.4z"/>
<line class="st7" x1="-345.2" y1="302.3" x2="-313.3" y2="302.3"/>
<circle class="st8" cx="-329.3" cy="309.5" r="8.5"/>
<circle class="st9" cx="-329.3" cy="309.5" r="6"/>
<rect x="-319.3" y="296.5" class="st10" width="3.9" height="3.9"/>
<line class="st7" x1="-341.7" y1="294.2" x2="-341.7" y2="298.9"/>
<line class="st7" x1="-340.3" y1="293.7" x2="-340.3" y2="298.9"/>
<line class="st7" x1="-338.8" y1="293.7" x2="-338.8" y2="298.9"/>
<g>
	<linearGradient id="SVGID_1_" gradientUnits="userSpaceOnUse" x1="-361.8124" y1="307.25" x2="-296.7876" y2="307.25">
		<stop  offset="0" style="stop-color:#FFFFFF"/>
		<stop  offset="0.9951" style="stop-color:#FF6485"/>
	</linearGradient>
	<circle class="st11" cx="-329.3" cy="307.2" r="31"/>
</g>
</svg>
