<?xml version="1.0" encoding="utf-8"?>
<!-- Generator: Adobe Illustrator 19.1.0, SVG Export Plug-In . SVG Version: 6.00 Build 0)  -->
<svg version="1.1" id="Layer_1" xmlns="http://www.w3.org/2000/svg" xmlns:xlink="http://www.w3.org/1999/xlink" x="0px" y="0px"
	 viewBox="0 0 249.8 249.8" style="enable-background:new 0 0 249.8 249.8;" xml:space="preserve">
<style type="text/css">
	.st0{fill:#A09F9F;stroke:url(#SVGID_1_);stroke-width:9;stroke-miterlimit:10;}
	.st1{fill:#FFFFFF;}
	.st2{fill:none;stroke:#F16485;stroke-width:5;stroke-miterlimit:10;}
	.st3{fill:#F16485;stroke:#F16485;stroke-width:1.5509;stroke-miterlimit:10;}
	.st4{fill:#F16485;stroke:#FFFFFF;stroke-width:6;stroke-miterlimit:10;}
	.st5{fill:#F16485;}
	.st6{fill:none;stroke:#F16485;stroke-width:3;stroke-miterlimit:10;}
</style>
<g>
	
		<linearGradient id="SVGID_1_" gradientUnits="userSpaceOnUse" x1="793.8397" y1="737.9849" x2="1038.3293" y2="737.9849" gradientTransform="matrix(-1 0 0 -1 1043.34 863.84)">
		<stop  offset="0" style="stop-color:#FFFFFF"/>
		<stop  offset="0.9951" style="stop-color:#F16485"/>
	</linearGradient>
	<circle class="st0" cx="127.1" cy="125.9" r="117.6"/>
</g>
<path class="st1" d="M165.4,183.9H84.8c-10.9,0-19.9-9-19.9-19.9V88.3c0-10.9,9-19.9,19.9-19.9H165c10.9,0,19.9,9,19.9,19.9V164
	C184.9,174.9,176.2,183.9,165.4,183.9z"/>
<line class="st2" x1="65.3" y1="101.1" x2="184.9" y2="101.1"/>
<circle class="st3" cx="124.9" cy="128.1" r="31.9"/>
<circle class="st4" cx="124.9" cy="128.1" r="22.5"/>
<rect x="162.4" y="79.3" class="st5" width="14.6" height="14.6"/>
<line class="st6" x1="78.4" y1="70.7" x2="78.4" y2="88.3"/>
<line class="st6" x1="83.7" y1="68.8" x2="83.7" y2="88.3"/>
<line class="st6" x1="89.3" y1="68.8" x2="89.3" y2="88.3"/>
</svg>
