<?xml version="1.0" encoding="utf-8"?>
<!-- Generator: Adobe Illustrator 19.1.0, SVG Export Plug-In . SVG Version: 6.00 Build 0)  -->
<svg version="1.1" id="Layer_1" xmlns="http://www.w3.org/2000/svg" xmlns:xlink="http://www.w3.org/1999/xlink" x="0px" y="0px"
	 viewBox="0 0 241.2 215.9" style="enable-background:new 0 0 241.2 215.9;" xml:space="preserve">
<style type="text/css">
	.st0{fill:#A09F9F;stroke:url(#SVGID_1_);stroke-width:10;stroke-miterlimit:10;}
	.st1{fill:#FFFFFF;}
	.st2{fill:none;stroke:#F16485;stroke-width:3;stroke-miterlimit:10;}
	.st3{fill:#F16485;stroke:#F16485;stroke-width:1.5509;stroke-miterlimit:10;}
	.st4{fill:#F16485;stroke:#FFFFFF;stroke-width:4;stroke-miterlimit:10;}
	.st5{fill:#F16485;}
</style>
<g>
	
		<linearGradient id="SVGID_1_" gradientUnits="userSpaceOnUse" x1="-200.6573" y1="-106.063" x2="12.5295" y2="-106.063" gradientTransform="matrix(-1 0 0 -1 26.7 1.874)">
		<stop  offset="0" style="stop-color:#FFFFFF"/>
		<stop  offset="0.9951" style="stop-color:#F16485"/>
	</linearGradient>
	<circle class="st0" cx="120.6" cy="107.9" r="101.4"/>
</g>
<path class="st1" d="M153.1,155.2H85.5c-9.1,0-16.7-7.5-16.7-16.7V75.1c0-9.1,7.5-16.7,16.7-16.7h67.2c9.1,0,16.7,7.5,16.7,16.7
	v63.5C169.4,147.7,162.2,155.2,153.1,155.2z"/>
<line class="st2" x1="69.2" y1="85.8" x2="169.4" y2="85.8"/>
<circle class="st3" cx="119.1" cy="108.4" r="26.7"/>
<circle class="st4" cx="119.1" cy="108.4" r="18.9"/>
<rect x="150.5" y="67.5" class="st5" width="12.3" height="12.3"/>
<line class="st2" x1="80.2" y1="60.3" x2="80.2" y2="75.1"/>
<line class="st2" x1="84.6" y1="58.8" x2="84.6" y2="75.1"/>
<line class="st2" x1="89.3" y1="58.8" x2="89.3" y2="75.1"/>
</svg>
