<?xml version="1.0" encoding="utf-8"?>
<!-- Generator: Adobe Illustrator 19.1.0, SVG Export Plug-In . SVG Version: 6.00 Build 0)  -->
<svg version="1.1" id="Layer_1" xmlns="http://www.w3.org/2000/svg" xmlns:xlink="http://www.w3.org/1999/xlink" x="0px" y="0px"
	 viewBox="0 0 72.8 65.6" style="enable-background:new 0 0 72.8 65.6;" xml:space="preserve">
<style type="text/css">
	.st0{fill:#BCBEC0;}
	.st1{fill:#FFFFFF;}
</style>
<path class="st0" d="M36.4,15.2c0,0-5.9-20.3-25.1-13.8c0,0-13.6,4.9-11,21.2C1,26.5,2.6,30.2,5,33.5c2.5,3.4,6.7,8.3,13.7,14
	c0,0,14.4,12.3,17.8,18.2c0,0,5.8-8.8,16.1-17c0,0,18-14.9,19.5-23.4c0,0,5.8-19-13-24.6C58.9,0.6,44.3-4.5,36.4,15.2z"/>
<path class="st1" d="M47.7,21.5c0,0-4.4-4.4-9.4-0.3c0,0-2.8,2.3-1.9,6.6c0,0-8.7-0.3-14-7.2c0,0-3.3,4.4,1.8,9c0,0-1.9,0-2.9-0.8
	c0,0-0.4,5.1,5.3,6.6c0,0-1.4,0.6-2.8,0.2c0,0,0.9,4.1,6.1,4.6c0,0-4.6,3.8-9.8,2.8c0,0,10.7,7.5,22.4-1c1.8-1.3,3.3-3,4.4-4.9
	c1.4-2.4,2.9-6.1,2.8-10.9c0,0,2.8-3,3.3-3.8c0,0-3.4,1.3-3.8,1.1c0,0,2.3-1.4,2.9-3.8C51.9,19.9,49.1,21.5,47.7,21.5z"/>
</svg>
