<?xml version="1.0" encoding="utf-8"?>
<!-- Generator: Adobe Illustrator 19.1.0, SVG Export Plug-In . SVG Version: 6.00 Build 0)  -->
<svg version="1.1" id="Layer_1" xmlns="http://www.w3.org/2000/svg" xmlns:xlink="http://www.w3.org/1999/xlink" x="0px" y="0px"
	 viewBox="0 0 249.8 249.8" style="enable-background:new 0 0 249.8 249.8;" xml:space="preserve">
<style type="text/css">
	.st0{fill:#FFFFFF;}
	.st1{fill:none;stroke:#F16485;stroke-width:5;stroke-miterlimit:10;}
	.st2{fill:#F16485;stroke:#F16485;stroke-width:1.5509;stroke-miterlimit:10;}
	.st3{fill:#F16485;stroke:#FFFFFF;stroke-width:6;stroke-miterlimit:10;}
	.st4{fill:#F16485;}
	.st5{fill:none;stroke:#F16485;stroke-width:3;stroke-miterlimit:10;}
	.st6{fill:none;stroke:#F16485;stroke-width:3;stroke-linecap:round;stroke-miterlimit:10;}
	.st7{fill:none;}
	.st8{enable-background:new    ;}
	.st9{fill:#A09F9F;stroke:url(#SVGID_1_);stroke-width:9;stroke-miterlimit:10;}
</style>
<g>
	<path class="st0" d="M-209.7,307.6h-80.6c-10.9,0-19.9-9-19.9-19.9V212c0-10.9,9-19.9,19.9-19.9h80.2c10.9,0,19.9,9,19.9,19.9v75.7
		C-190.2,298.6-198.9,307.6-209.7,307.6z"/>
	<line class="st1" x1="-309.8" y1="224.7" x2="-190.2" y2="224.7"/>
	<circle class="st2" cx="-250.2" cy="251.7" r="31.9"/>
	<circle class="st3" cx="-250.2" cy="251.7" r="22.5"/>
	<rect x="-212.7" y="203" class="st4" width="14.6" height="14.6"/>
	<line class="st5" x1="-296.7" y1="194.4" x2="-296.7" y2="212"/>
	<line class="st5" x1="-291.4" y1="192.5" x2="-291.4" y2="212"/>
	<line class="st5" x1="-285.8" y1="192.5" x2="-285.8" y2="212"/>
</g>
<g>
	<path class="st0" d="M-73.8,348.5h-123.5c-0.4,0-0.8-0.4-0.8-0.8v-71.6c0-1.2,0.8-1.9,1.9-1.9h120.4c1.2,0,2.3,1.2,2.3,2.3v71.2
		C-73.5,348.5-73.5,348.5-73.8,348.5z"/>
	<polyline class="st6" points="-196.2,276.1 -135.8,305 -75,276.1 	"/>
	<path class="st4" d="M-135.7,295.8c0,0-3.5-12.9-15.8-8.4c0,0-8.4,3-6.9,13.4c0.5,2.5,1.5,5,3,6.9c1.5,2,4.5,5,8.4,8.9
		c0,0,8.9,7.9,10.9,11.4c0,0,3.5-5.4,9.9-10.9c0,0,11.4-9.4,12.4-14.9c0,0,3.5-11.9-7.9-15.4C-121.8,286.4-130.8,282.9-135.7,295.8z
		"/>
	<rect x="-144.6" y="295.8" class="st7" width="17.8" height="16.8"/>
	
		<text transform="matrix(1 0 0 1 -144.2963 308.8273)" class="st0" style="font-family:'STKaiTi-TC-Regular'; font-size:17.8922px;">@</text>
</g>
<g>
	
		<linearGradient id="SVGID_1_" gradientUnits="userSpaceOnUse" x1="795.9873" y1="737.9849" x2="1040.4768" y2="737.9849" gradientTransform="matrix(-1 0 0 -1 1043.34 863.84)">
		<stop  offset="0" style="stop-color:#FFFFFF"/>
		<stop  offset="0.9951" style="stop-color:#F16485"/>
	</linearGradient>
	<circle class="st9" cx="124.9" cy="125.9" r="117.6"/>
</g>
<g>
	<path class="st0" d="M167.3,83.3c0,0-16.5-16.5-35.5-1.2c0,0-10.9,8.9-7.3,25c0,0-32.7-1.2-52.5-27c0,0-12.5,16.5,6.9,33.9
		c0,0-7.3,0-10.9-2.8c0,0-1.2,19,19.8,25c0,0-5.2,2-10.5,0.8c0,0,3.2,15.3,23,17.4c0,0-17.4,14.1-37.1,10.5c0,0,40,27.8,84.3-4
		c6.9-4.8,12.5-11.3,16.5-18.2c5.2-9.3,10.9-23,10.5-40.8c0,0,10.5-11.3,12.1-14.1c0,0-12.9,4.8-14.5,4c0,0,8.9-5.2,10.9-14.1
		C183.4,77.3,172.9,83.3,167.3,83.3z"/>
</g>
</svg>
