<?xml version="1.0" encoding="utf-8"?>
<!-- Generator: Adobe Illustrator 19.1.0, SVG Export Plug-In . SVG Version: 6.00 Build 0)  -->
<svg version="1.1" id="Layer_1" xmlns="http://www.w3.org/2000/svg" xmlns:xlink="http://www.w3.org/1999/xlink" x="0px" y="0px"
	 viewBox="0 0 241.2 215.9" style="enable-background:new 0 0 241.2 215.9;" xml:space="preserve">
<style type="text/css">
	.st0{fill:#A09F9F;stroke:url(#SVGID_1_);stroke-width:10;stroke-miterlimit:10;}
	.st1{fill:#FFFFFF;}
</style>
<g>
	
		<linearGradient id="SVGID_1_" gradientUnits="userSpaceOnUse" x1="-200.6573" y1="-106.58" x2="12.5295" y2="-106.58" gradientTransform="matrix(-1 0 0 -1 26.7 1.874)">
		<stop  offset="0" style="stop-color:#FFFFFF"/>
		<stop  offset="0.9951" style="stop-color:#F16485"/>
	</linearGradient>
	<circle class="st0" cx="120.6" cy="108.5" r="101.4"/>
</g>
<g>
	<path class="st1" d="M155.4,73.5c0,0-13.6-13.6-29.2-1c0,0-8.9,7.3-6,20.5c0,0-26.8-1-43.1-22.2c0,0-10.3,13.6,5.6,27.8
		c0,0-6,0-8.9-2.3c0,0-1,15.6,16.2,20.5c0,0-4.3,1.7-8.6,0.7c0,0,2.7,12.6,18.9,14.3c0,0-14.3,11.6-30.5,8.6c0,0,32.8,22.9,69.3-3.3
		c5.6-4,10.3-9.3,13.6-14.9c4.3-7.6,8.9-18.9,8.6-33.5c0,0,8.6-9.3,9.9-11.6c0,0-10.6,4-11.9,3.3c0,0,7.3-4.3,8.9-11.6
		C168.7,68.6,160,73.5,155.4,73.5z"/>
</g>
</svg>
